<svg
  id="chart"
  width="auto"
  height="auto"
  viewBox="0 0 1000 500"
  xmlns="http://www.w3.org/2000/svg"
>
  
  <path d="M 0,495.99339806085356 C 8.4,493.68190233837015 25.2,488.19550167376815 42,484.4359194484366 C 58.8,480.67633722310507 67.2,483.56006492739596 84,477.19548693419586 C 100.8,470.83090894099576 109.2,458.72043294374964 126,452.61302948243616 C 142.8,446.5056260211227 151.2,451.5341029642207 168,446.65846962762856 C 184.8,441.7828362910364 193.2,433.8059388957991 210,428.2348627994755 C 226.8,422.66378670315186 235.2,429.70337562935896 252,418.80308914601056 C 268.8,407.90280266266217 277.2,382.7022803614083 294,373.73343038273345 C 310.8,364.76458040405856 319.2,374.4935046784888 336,373.95883925263615 C 352.8,373.4241738267835 361.2,374.5239071051106 378,371.0601032534701 C 394.8,367.59629940182964 403.2,355.26366763560276 420,356.6398199944339 C 436.8,358.015972353265 445.2,387.96239044197495 462,377.94086504762566 C 478.8,367.9193396532764 487.2,313.82848775402175 504,306.5321930226876 C 520.8,299.2358982913534 529.2,355.26154111955725 546,341.4593913909549 C 562.8,327.6572416623526 571.2,268.5825125796211 588,237.52144437967604 C 604.8,206.46037617973099 613.2,200.0600879196774 630,186.1540503912296 C 646.8,172.2480128627818 655.2,152.73462202263593 672,167.99125673743708 C 688.8,183.24789145223824 697.2,260.80419502537427 714,262.4372239652354 C 730.8,264.0702529050965 739.2,173.98776930719436 756,176.15640143674273 C 772.8,178.3250335662911 781.2,255.02068779109592 798,273.2803846129772 C 814.8,291.5400814348584 823.2,297.6212847967638 840,267.45488554614894 C 856.8,237.28848629553406 865.2,159.6848484844333 882,122.44838835990276 C 898.8,85.21192823537223 907.2,71.74483988375388 924,81.2725849234962 C 940.8,90.80032996323851 949.2,144.95404598713384 966,170.0871135586143 C 982.8,195.22018113009477 999.6,199.56776093644172 1008,206.93792278089856,L 1000 500,L 0 500Z" fill="#a06cd51a" />
  <path d="M 0,495.99339806085356 C 8.4,493.68190233837015 25.2,488.19550167376815 42,484.4359194484366 C 58.8,480.67633722310507 67.2,483.56006492739596 84,477.19548693419586 C 100.8,470.83090894099576 109.2,458.72043294374964 126,452.61302948243616 C 142.8,446.5056260211227 151.2,451.5341029642207 168,446.65846962762856 C 184.8,441.7828362910364 193.2,433.8059388957991 210,428.2348627994755 C 226.8,422.66378670315186 235.2,429.70337562935896 252,418.80308914601056 C 268.8,407.90280266266217 277.2,382.7022803614083 294,373.73343038273345 C 310.8,364.76458040405856 319.2,374.4935046784888 336,373.95883925263615 C 352.8,373.4241738267835 361.2,374.5239071051106 378,371.0601032534701 C 394.8,367.59629940182964 403.2,355.26366763560276 420,356.6398199944339 C 436.8,358.015972353265 445.2,387.96239044197495 462,377.94086504762566 C 478.8,367.9193396532764 487.2,313.82848775402175 504,306.5321930226876 C 520.8,299.2358982913534 529.2,355.26154111955725 546,341.4593913909549 C 562.8,327.6572416623526 571.2,268.5825125796211 588,237.52144437967604 C 604.8,206.46037617973099 613.2,200.0600879196774 630,186.1540503912296 C 646.8,172.2480128627818 655.2,152.73462202263593 672,167.99125673743708 C 688.8,183.24789145223824 697.2,260.80419502537427 714,262.4372239652354 C 730.8,264.0702529050965 739.2,173.98776930719436 756,176.15640143674273 C 772.8,178.3250335662911 781.2,255.02068779109592 798,273.2803846129772 C 814.8,291.5400814348584 823.2,297.6212847967638 840,267.45488554614894 C 856.8,237.28848629553406 865.2,159.6848484844333 882,122.44838835990276 C 898.8,85.21192823537223 907.2,71.74483988375388 924,81.2725849234962 C 940.8,90.80032996323851 949.2,144.95404598713384 966,170.0871135586143 C 982.8,195.22018113009477 999.6,199.56776093644172 1008,206.93792278089856" fill="none" stroke="rgba(160,108,213,1)" stroke-width="5px" />
  <g>
  
  </g>
</svg>